<?xml version="1.0" encoding="utf-8"?>
<!-- Uploaded to: SVG Repo, www.svgrepo.com, Generator: SVG Repo Mixer Tools -->
<svg version="1.1" id="Uploaded to svgrepo.com" xmlns="http://www.w3.org/2000/svg" xmlns:xlink="http://www.w3.org/1999/xlink" 
	 width="800px" height="800px" viewBox="0 0 32 32" xml:space="preserve">
<style type="text/css">
	.hatch_een{fill:#265AA5;}
	.hatch_twee{fill:#FFC5BB;}
	.st0{fill:#333B3A;}
</style>
<g>
	<path class="hatch_twee" d="M26.516,21l3-3H30v0.93L27.93,21H26.516z M21,15.93l3-3V12h-0.484L21,14.516V15.93z M24,23.516l-3,3V27
		h0.93L24,24.93V23.516z M17.516,18L15,20.516V21h0.93l3-3H17.516z M21,22.516v1.414L26.93,18h-1.414L21,22.516z M18.516,21h1.414
		L24,16.93v-1.414L18.516,21z"/>
	<path class="hatch_een" d="M30,17h-5v-5c0-0.552-0.448-1-1-1h-1V2c0-0.552-0.448-1-1-1H8C7.696,1,7.409,1.138,7.219,1.375l-4,5
		C3.077,6.553,3,6.773,3,7v23c0,0.552,0.448,1,1,1h18c0.552,0,1-0.448,1-1v-2h1c0.552,0,1-0.448,1-1v-5h5c0.552,0,1-0.448,1-1v-3
		C31,17.448,30.552,17,30,17z M8,2v5H4L8,2z M22,30H4V8h4c0.552,0,1-0.448,1-1V2h13v9h-1c-0.552,0-1,0.448-1,1v5h-5
		c-0.552,0-1,0.448-1,1v3c0,0.552,0.448,1,1,1h5v5c0,0.552,0.448,1,1,1h1V30z M30,21h-6v6h-3v-6h-6v-3h6v-6h3v6h6V21z"/>
</g>
</svg>