<?xml version="1.0" encoding="iso-8859-1"?>
<!-- Uploaded to: SVG Repo, www.svgrepo.com, Generator: SVG Repo Mixer Tools -->
<svg height="800px" width="800px" version="1.1" id="Layer_1" xmlns="http://www.w3.org/2000/svg" xmlns:xlink="http://www.w3.org/1999/xlink" 
	 viewBox="0 0 512 512" xml:space="preserve">
<polyline style="fill:#CFDCE5;" points="404.166,405.355 404.166,502.378 502.861,502.378 502.861,8.906 9.389,8.906 9.389,389.297 
	108.082,379.417 108.082,502.378 305.471,502.378 305.471,386.828 "/>
<path d="M502.736,211.795c5.117,0,9.264-4.148,9.264-9.264V9.265c0-5.116-4.147-9.264-9.264-9.264H9.264
	C4.148,0.001,0,4.148,0,9.265v380.39c0,2.617,1.107,5.113,3.048,6.869c1.94,1.756,4.537,2.61,7.138,2.349l88.507-8.861v112.724
	c0,5.116,4.148,9.264,9.264,9.264h197.389c5.117,0,9.264-4.148,9.264-9.264V398.349l80.167,15.048v89.337
	c0,5.116,4.147,9.264,9.264,9.264h98.694c5.117,0,9.264-4.148,9.264-9.264V233.411c0-5.116-4.147-9.264-9.264-9.264
	c-5.117,0-9.264,4.148-9.264,9.264v260.061h-80.166V355.689c0-5.116-4.147-9.264-9.264-9.264c-5.117,0-9.264,4.148-9.264,9.264
	v38.858l-80.167-15.048v-23.81c0-5.116-4.147-9.264-9.264-9.264s-9.264,4.148-9.264,9.264v137.783h-80.166V355.689
	c0-5.116-4.148-9.264-9.264-9.264s-9.264,4.148-9.264,9.264v137.783h-80.167V355.689c0-5.116-4.148-9.264-9.264-9.264
	s-9.264,4.148-9.264,9.264v15.702l-80.166,8.026V18.529h474.944v184.003C493.472,207.647,497.619,211.795,502.736,211.795z"/>
<path d="M383.836,81.489c5.117,0,9.264-4.148,9.264-9.264c0-5.116-4.147-9.264-9.264-9.264H222.768
	c-5.116,0-9.264,4.148-9.264,9.264c0,5.116,4.148,9.264,9.264,9.264H383.836z"/>
<path d="M191.888,81.489c5.116,0,9.264-4.148,9.264-9.264c0-5.116-4.148-9.264-9.264-9.264h-63.725
	c-5.116,0-9.264,4.148-9.264,9.264c0,5.116,4.148,9.264,9.264,9.264H191.888z"/>
<path d="M434.593,144.481h-67.313c-5.117,0-9.264,4.148-9.264,9.264c0,5.116,4.147,9.264,9.264,9.264h67.313
	c5.117,0,9.264-4.148,9.264-9.264C443.857,148.628,439.709,144.481,434.593,144.481z"/>
<path d="M68.142,153.745c0,5.116,4.148,9.264,9.264,9.264h258.992c5.117,0,9.264-4.148,9.264-9.264c0-5.116-4.147-9.264-9.264-9.264
	H77.406C72.29,144.481,68.142,148.628,68.142,153.745z"/>
<path d="M434.593,194.967H199.299c-5.116,0-9.264,4.148-9.264,9.264s4.148,9.264,9.264,9.264h235.293
	c5.117,0,9.264-4.148,9.264-9.264S439.709,194.967,434.593,194.967z"/>
<path d="M77.406,213.495h91.013c5.116,0,9.264-4.148,9.264-9.264s-4.148-9.264-9.264-9.264H77.406c-5.116,0-9.264,4.148-9.264,9.264
	S72.29,213.495,77.406,213.495z"/>
<path d="M434.593,245.453H304.288c-5.117,0-9.264,4.148-9.264,9.264c0,5.116,4.147,9.264,9.264,9.264h130.305
	c5.117,0,9.264-4.148,9.264-9.264C443.857,249.601,439.709,245.453,434.593,245.453z"/>
<path d="M77.406,263.981h196c5.117,0,9.264-4.148,9.264-9.264c0-5.116-4.147-9.264-9.264-9.264h-196
	c-5.116,0-9.264,4.148-9.264,9.264C68.142,259.833,72.29,263.981,77.406,263.981z"/>
</svg>