<?xml version="1.0" encoding="iso-8859-1"?>
<!-- Uploaded to: SVG Repo, www.svgrepo.com, Generator: SVG Repo Mixer Tools -->
<svg version="1.1" id="Layer_1" xmlns="http://www.w3.org/2000/svg" xmlns:xlink="http://www.w3.org/1999/xlink" 
	 viewBox="0 0 511.882 511.882" xml:space="preserve">
<g>
	<path style="fill:#434A54;" d="M490.694,511.882H21.17c-5.889,0-10.669-4.78-10.669-10.67c0-5.889,4.78-10.669,10.669-10.669
		h469.524c5.905,0,10.686,4.78,10.686,10.669C501.379,507.102,496.599,511.882,490.694,511.882z"/>
	<rect x="95.87" y="96.381" style="fill:#434A54;" width="21.339" height="37.46"/>
	<rect x="394.65" y="98.161" style="fill:#434A54;" width="21.339" height="37.452"/>
	<rect x="319.951" y="96.381" style="fill:#434A54;" width="21.371" height="37.46"/>
	<rect x="170.571" y="98.161" style="fill:#434A54;" width="21.339" height="37.452"/>
	<rect x="245.271" y="96.381" style="fill:#434A54;" width="21.339" height="37.46"/>
</g>
<rect x="53.19" style="fill:#ED5564;" width="405.51" height="106.71"/>
<path style="fill:#434A54;" d="M341.323,64.024h-170.75c-5.89,0-10.669-4.772-10.669-10.669c0-5.89,4.779-10.67,10.669-10.67h170.75
	c5.873,0,10.653,4.78,10.653,10.67C351.977,59.252,347.197,64.024,341.323,64.024z"/>
<rect x="31.84" y="181.751" style="fill:#FC6E51;" width="448.2" height="308.8"/>
<rect x="10.502" y="128.381" style="fill:#E6E9ED;" width="490.88" height="84.71"/>
<rect x="213.131" y="383.821" style="fill:#434A54;" width="85.61" height="106.73"/>
<g>
	<rect x="117.21" y="255.781" style="fill:#FFCE54;" width="64.03" height="64.02"/>
	<rect x="223.921" y="255.781" style="fill:#FFCE54;" width="64.04" height="64.02"/>
	<rect x="330.641" y="255.781" style="fill:#FFCE54;" width="64.02" height="64.02"/>
</g>
</svg>