<?xml version="1.0" encoding="iso-8859-1"?>
<!-- Uploaded to: SVG Repo, www.svgrepo.com, Generator: SVG Repo Mixer Tools -->
<svg version="1.1" id="Layer_1" xmlns="http://www.w3.org/2000/svg" xmlns:xlink="http://www.w3.org/1999/xlink" 
	 viewBox="0 0 512 512" xml:space="preserve">
<rect x="12.8" y="192" style="fill:#EDEDED;" width="486.4" height="243.2"/>
<rect x="448" y="192" style="fill:#D8D8DA;" width="51.2" height="243.2"/>
<rect x="230.4" y="294.4" style="fill:#D1E5F5;" width="217.6" height="89.6"/>
<polygon style="fill:#B4D8F1;" points="268.8,294.4 358.4,384 448,384 448,294.4 "/>
<polygon style="fill:#80CB93;" points="512,153.6 499.2,166.4 12.8,166.4 0,153.6 76.8,76.8 435.2,76.8 "/>
<polygon style="fill:#6DC180;" points="435.2,76.8 409.6,76.8 486.4,153.6 473.6,166.4 499.2,166.4 512,153.6 "/>
<path style="fill:#95D5A7;" d="M0,192c0,35.346,28.654,64,64,64s64-28.654,64-64c0,35.346,28.654,64,64,64s64-28.654,64-64
	c0,35.346,28.654,64,64,64s64-28.654,64-64c0,35.346,28.654,64,64,64s64-28.654,64-64v-38.4H0V192z"/>
<g>
	<path style="fill:#80CB93;" d="M486.4,153.6V192c0,30.962-21.988,56.787-51.2,62.717c4.136,0.84,8.416,1.283,12.8,1.283
		c35.346,0,64-28.654,64-64v-38.4H486.4z"/>
	<path style="fill:#80CB93;" d="M307.2,254.717c4.136,0.84,8.416,1.283,12.8,1.283c35.346,0,64-28.654,64-64h-13.873
		c-6.285,0-11.58,4.575-12.631,10.771C353.084,228.806,332.948,249.49,307.2,254.717z"/>
	<path style="fill:#80CB93;" d="M179.2,254.717c4.136,0.84,8.416,1.283,12.8,1.283c35.346,0,64-28.654,64-64h-13.873
		c-6.285,0-11.58,4.575-12.631,10.771C225.084,228.806,204.948,249.49,179.2,254.717z"/>
	<path style="fill:#80CB93;" d="M51.2,254.717C55.336,255.557,59.616,256,64,256c35.346,0,64-28.654,64-64h-13.873
		c-6.285,0-11.58,4.575-12.631,10.771C97.084,228.806,76.948,249.49,51.2,254.717z"/>
</g>
<rect x="64" y="294.4" style="fill:#E07188;" width="115.2" height="140.8"/>
<g>
	<rect x="140.8" y="294.4" style="fill:#DC4161;" width="38.4" height="140.8"/>
	<path style="fill:#DC4161;" d="M102.4,380.8c-5.302,0-9.6-4.297-9.6-9.6v-12.8c0-5.303,4.298-9.6,9.6-9.6
		c5.302,0,9.6,4.297,9.6,9.6v12.8C112,376.503,107.702,380.8,102.4,380.8z"/>
</g>
</svg>